<svg width="25" height="24" viewBox="0 0 25 24" fill="none" xmlns="http://www.w3.org/2000/svg">
<path d="M8.13796 23.1441H3.88482C3.29377 23.1441 2.72692 22.9093 2.30898 22.4914C1.89105 22.0734 1.65625 21.5066 1.65625 20.9155V3.08697C1.65625 2.49592 1.89105 1.92907 2.30898 1.51113C2.72692 1.09319 3.29377 0.858398 3.88482 0.858398H21.7134C22.3044 0.858398 22.8713 1.09319 23.2892 1.51113C23.7072 1.92907 23.942 2.49592 23.942 3.08697V8.14411M23.942 14.5727L15.8677 22.647L12.2162 23.1441L12.7305 19.4927L20.7877 11.4184L23.942 14.5727Z" stroke="#3D4630" stroke-width="1.71429" stroke-linecap="round" stroke-linejoin="round"/>
<path d="M1.65625 12.2824C5.45076 11.599 9.36467 12.1777 12.7991 13.9298M16.2517 8.22126C16.82 8.22126 17.365 7.9955 17.7669 7.59363C18.1688 7.19177 18.3945 6.64673 18.3945 6.0784C18.3945 5.51008 18.1688 4.96504 17.7669 4.56318C17.365 4.16131 16.82 3.93555 16.2517 3.93555C15.6834 3.93555 15.1383 4.16131 14.7365 4.56318C14.3346 4.96504 14.1088 5.51008 14.1088 6.0784C14.1088 6.64673 14.3346 7.19177 14.7365 7.59363C15.1383 7.9955 15.6834 8.22126 16.2517 8.22126Z" stroke="#3D4630" stroke-width="1.71429" stroke-linecap="round" stroke-linejoin="round"/>
</svg>
