<svg width="25" height="17" viewBox="0 0 25 17" fill="none" xmlns="http://www.w3.org/2000/svg">
<path d="M16.6793 8.25725L22.8303 2.91325V13.5403L16.6793 8.25725ZM8.75331 9.16225L10.9133 11.0372C11.2523 11.3252 11.6943 11.4993 12.1773 11.4993H12.1943H12.2073C12.6913 11.4993 13.1333 11.3243 13.4763 11.0343L13.4733 11.0363L15.6333 9.16125L22.1993 14.8002H2.19031L8.75331 9.16225ZM2.18131 1.64625H22.2113L12.5903 10.0022C12.4821 10.0878 12.3482 10.1343 12.2103 10.1342H12.1963H12.1833C12.0449 10.1344 11.9105 10.0875 11.8023 10.0013L11.8033 10.0022L2.18131 1.64625ZM1.56031 2.91225L7.71031 8.25625L1.56031 13.5362V2.91225ZM23.1603 0.47125C22.9203 0.35125 22.6383 0.28125 22.3393 0.28125H2.05431C1.76447 0.281319 1.47862 0.348761 1.21931 0.47825L1.23031 0.47325C0.919886 0.626361 0.65846 0.863229 0.475567 1.1571C0.292673 1.45096 0.1956 1.79012 0.195312 2.13625L0.195313 14.3083C0.195842 14.8009 0.391765 15.2731 0.740093 15.6215C1.08842 15.9698 1.5607 16.1657 2.05331 16.1663H22.3363C22.8289 16.1657 23.3012 15.9698 23.6495 15.6215C23.9979 15.2731 24.1938 14.8009 24.1943 14.3083V2.13625C24.1943 1.40925 23.7753 0.77925 23.1653 0.47625L23.1543 0.47125H23.1603Z" fill="#3D4630"/>
</svg>
