<svg width="25" height="25" viewBox="0 0 25 25" fill="none" xmlns="http://www.w3.org/2000/svg">
<path d="M20.201 13.798V12.198C20.201 11.7737 20.0324 11.3667 19.7323 11.0667C19.4323 10.7666 19.0253 10.598 18.601 10.598H2.60098C2.17663 10.598 1.76966 10.7666 1.46961 11.0667C1.16955 11.3667 1.00098 11.7737 1.00098 12.198V21.798C1.00098 22.2224 1.16955 22.6294 1.46961 22.9294C1.76966 23.2295 2.17663 23.398 2.60098 23.398H18.601C19.0253 23.398 19.4323 23.2295 19.7323 22.9294C20.0324 22.6294 20.201 22.2224 20.201 21.798V20.198M20.201 13.798H13.801C12.9523 13.798 12.1384 14.1352 11.5382 14.7353C10.9381 15.3354 10.601 16.1494 10.601 16.998C10.601 17.8467 10.9381 18.6607 11.5382 19.2608C12.1384 19.8609 12.9523 20.198 13.801 20.198H20.201M20.201 13.798C21.0497 13.798 21.8636 14.1352 22.4637 14.7353C23.0638 15.3354 23.401 16.1494 23.401 16.998C23.401 17.8467 23.0638 18.6607 22.4637 19.2608C21.8636 19.8609 21.0497 20.198 20.201 20.198M5.80098 10.598V5.79805C5.80098 4.52501 6.30669 3.30411 7.20686 2.40393C8.10704 1.50376 9.32794 0.998047 10.601 0.998047C11.874 0.998047 13.0949 1.50376 13.9951 2.40393C14.8953 3.30411 15.401 4.52501 15.401 5.79805V10.598M19.401 16.998H21.001M16.201 16.998H17.801M13.001 16.998H14.601" stroke="#3D4630" stroke-width="1.6"/>
</svg>
