<svg width="24" height="25" viewBox="0 0 24 25" fill="none" xmlns="http://www.w3.org/2000/svg">
<path d="M6.88535 14.9162L4.88224 12.9133H14.9884C15.3866 12.9133 15.7084 12.5907 15.7084 12.1933C15.7084 11.7959 15.3866 11.4733 14.9884 11.4733H4.91971L6.88535 9.50766C7.16652 9.2265 7.16652 8.77072 6.88535 8.48956C6.60419 8.20839 6.14841 8.20839 5.86725 8.48956L5.86724 8.48955L5.86615 8.49067L2.32225 12.1282L2.24067 12.2119L2.32225 12.2957L5.86615 15.9332L5.86614 15.9332L5.86725 15.9343C6.00794 16.075 6.19215 16.1452 6.3763 16.1452C6.56046 16.1452 6.74467 16.075 6.88536 15.9343C7.16652 15.6531 7.16652 15.1973 6.88535 14.9162L6.88535 14.9162ZM8.87558 9.19961V9.31961H8.99558H10.2034H10.3234V9.19961V4.53131C10.3234 4.19678 10.5949 3.92531 10.9294 3.92531H19.6429C19.9777 3.92531 20.2489 4.19675 20.2489 4.53131V4.53146L20.2678 19.8742C20.2678 19.8743 20.2678 19.8743 20.2678 19.8744C20.2677 20.2089 19.9965 20.4802 19.6618 20.4802H10.9297C10.5952 20.4802 10.3237 20.2087 10.3237 19.8742V15.1798V15.0597L10.2036 15.0598L8.99575 15.0613L8.8759 15.0615V15.1813V20.5996C8.8759 21.3286 9.46661 21.9196 10.1959 21.9196H20.3956C21.1249 21.9196 21.7159 21.3286 21.7159 20.5996V3.79961V3.79956C21.7156 3.07063 21.1246 2.47961 20.3956 2.47961H10.1956C9.46629 2.47961 8.87558 3.07065 8.87558 3.79961V9.19961Z" fill="#3D4630" stroke="#3D4630" stroke-width="0.24"/>
</svg>
