<svg width="21" height="20" viewBox="0 0 21 20" fill="none" xmlns="http://www.w3.org/2000/svg">
<path d="M14.9808 19.6731C16.7285 19.6731 17.884 19.2008 18.9083 18.0557C18.9888 17.9755 19.0591 17.8851 19.1397 17.8045C19.7423 17.1317 20.0234 16.4687 20.0234 15.8361C20.0234 15.1127 19.6017 14.4398 18.7077 13.8167L15.7848 11.7878C14.8806 11.1651 13.8258 11.0948 12.982 11.9284L12.2088 12.7019C11.9774 12.9329 11.7768 12.9432 11.5458 12.8022C11.0135 12.4607 9.91855 11.5067 9.17498 10.7635C8.39155 9.98994 7.62826 9.12637 7.23655 8.49337C7.09598 8.26194 7.11612 8.07122 7.34712 7.84022L8.11041 7.06665C8.95426 6.22322 8.88398 5.15822 8.26126 4.26465L6.22212 1.3418C5.60926 0.447368 4.93641 0.0355107 4.21298 0.0256536C3.58041 0.0153679 2.91741 0.306796 2.24455 0.909368C2.15412 0.989939 2.07355 1.06022 1.98312 1.13051C0.848262 2.1548 0.375977 3.31022 0.375977 5.04765C0.375977 7.9208 2.14383 11.4162 5.38855 14.6605C8.61269 17.8851 12.1184 19.6731 14.9808 19.6731ZM14.9911 18.1259C12.4295 18.1761 9.14541 16.2077 6.54355 13.6161C3.92198 11.0044 1.86269 7.60922 1.91283 5.04808C1.93298 3.9428 2.31483 2.9888 3.10855 2.30565C3.16855 2.24565 3.22855 2.19508 3.29883 2.14494C3.59026 1.88351 3.92198 1.74337 4.20312 1.74337C4.50441 1.74337 4.76541 1.85351 4.95655 2.1548L6.90526 5.07765C7.11612 5.38922 7.13626 5.74108 6.82469 6.05222L5.94098 6.93637C5.23769 7.62937 5.29812 8.47322 5.80041 9.14608C6.37255 9.91965 7.36726 11.0447 8.13055 11.8079C8.90412 12.5815 10.1191 13.6662 10.8927 14.2487C11.5655 14.7509 12.4197 14.8015 13.1127 14.1081L13.9964 13.2244C14.308 12.9128 14.6496 12.9329 14.9607 13.1339L17.8836 15.0827C18.1853 15.2832 18.3057 15.5344 18.3057 15.8361C18.3057 16.1275 18.1651 16.4489 17.8943 16.7498C17.8471 16.8159 17.7968 16.8797 17.7434 16.9409C17.0504 17.7244 16.096 18.1058 14.9911 18.1259Z" fill="#3D4630"/>
</svg>
